<?xml version="1.0" encoding="UTF-8" standalone="no"?>
<svg
        xmlns:dc="http://purl.org/dc/elements/1.1/"
        xmlns:cc="http://creativecommons.org/ns#"
        xmlns:rdf="http://www.w3.org/1999/02/22-rdf-syntax-ns#"
        xmlns:sodipodi="http://sodipodi.sourceforge.net/DTD/sodipodi-0.dtd"
        xmlns:inkscape="http://www.inkscape.org/namespaces/inkscape"
        xmlns="http://www.w3.org/2000/svg"
        width="298.37524"
        height="32.67078"
        viewBox="0 0 298.37524 32.67078"
        version="1.1"
        id="svg40"
        sodipodi:docname="logo_error_catalog.svg"
        inkscape:version="1.0.2 (e86c870879, 2021-01-15)">
    <metadata
            id="metadata46">
        <rdf:RDF>
            <cc:Work
                    rdf:about="">
                <dc:format>image/svg+xml</dc:format>
                <dc:type
                        rdf:resource="http://purl.org/dc/dcmitype/StillImage"/>
                <dc:title>logo_Community</dc:title>
            </cc:Work>
        </rdf:RDF>
    </metadata>
    <defs
            id="defs44">
        <rect
                x="-17.38674"
                y="117.87509"
                width="347.15543"
                height="60.6992"
                id="rect875"/>
    </defs>
    <sodipodi:namedview
            pagecolor="#ffffff"
            bordercolor="#666666"
            borderopacity="1"
            objecttolerance="10"
            gridtolerance="10"
            guidetolerance="10"
            inkscape:pageopacity="0"
            inkscape:pageshadow="2"
            inkscape:window-width="1920"
            inkscape:window-height="1136"
            id="namedview42"
            showgrid="false"
            inkscape:zoom="2.4408602"
            inkscape:cx="180.00338"
            inkscape:cy="69.318725"
            inkscape:window-x="0"
            inkscape:window-y="27"
            inkscape:window-maximized="1"
            inkscape:current-layer="logo_Community"
            inkscape:document-rotation="0"
            fit-margin-top="0"
            fit-margin-left="0"
            fit-margin-right="0"
            fit-margin-bottom="0"/>
    <!-- Generator: Sketch 62 (91390) - https://sketch.com -->
    <title
            id="title2">logo_Community
    </title>
    <g
            id="Page-1"
            stroke="none"
            stroke-width="1"
            fill="none"
            fill-rule="evenodd">
        <g
                id="logo_Community"
                fill-rule="nonzero">
            <polygon
                    id="Path"
                    fill="#ffffff"
                    points="115.3,30.9 113.9,30.9 113.9,0 115.3,0 "/>
            <polygon
                    id="polygon22"
                    fill="#ffffff"
                    points="14.1,25.7 14.1,22.2 4.1,22.2 4.1,16.1 11.7,16.1 11.7,12.6 4.1,12.6 4.1,6.6 13.6,6.6 13.6,3.1 0,3.1 0,25.7 "/>
            <path
                    d="m 42.9,22.6 c 2.6,0.1 4.9,-1.9 5,-4.6 0,-0.1 0,-0.3 0,-0.4 0,-2.7 -2.1,-4.9 -4.8,-4.9 -0.1,0 -0.2,0 -0.2,0 -2.6,-0.1 -4.8,2 -4.9,4.6 0,0.1 0,0.2 0,0.3 -0.1,2.7 2,4.9 4.7,5 0.1,0 0.2,0 0.2,0 m 5,0.8 c -1.3,1.7 -3.3,2.7 -5.4,2.6 -4.5,0 -8.1,-3.5 -8.2,-8 0,-0.1 0,-0.3 0,-0.4 -0.2,-4.4 3.3,-8.2 7.7,-8.4 0.1,0 0.3,0 0.4,0 1.9,0 4.3,0.8 5.4,2.6 V 9.6 h 3.5 v 16.1 h -3.5 z"
                    id="path24"
                    fill="#ffffff"/>
            <path
                    d="m 56.5,20.9 c 1.2,1.1 2.8,1.7 4.4,1.8 1.2,0 2.1,-0.5 2.1,-1.5 0,-2.4 -7.9,-2.1 -7.9,-7.3 0,-3 2.7,-4.8 6.2,-4.8 2,-0.1 3.9,0.6 5.4,1.9 l -1.5,3 c -1.1,-0.9 -2.5,-1.4 -4,-1.4 -1,0 -2.1,0.4 -2.1,1.5 0,2.3 7.9,2 7.9,7.2 0,2.7 -2.4,4.9 -6.2,4.9 -2.3,0 -4.6,-0.8 -6.3,-2.4 z"
                    id="path26"
                    fill="#ffffff"/>
            <path
                    d="m 78.1,22.6 c 2.7,0 4.8,-2.1 4.9,-4.8 0,-0.1 0,-0.2 0,-0.3 0.2,-2.7 -1.9,-5 -4.5,-5.1 -2.7,-0.2 -5,1.9 -5.1,4.5 0,0.2 0,0.4 0,0.6 -0.1,2.7 1.9,4.9 4.6,5.1 0,0 0.1,0.1 0.1,0 M 78.2,9.1 c 5,0 9,3.5 9,8.5 0,5 -4,8.5 -8.9,8.5 -4.9,0 -9,-3.5 -9,-8.5 0,-5 4,-8.5 8.9,-8.5"
                    id="path28"
                    fill="#ffffff"/>
            <path
                    d="m 90.1,3.1 h 4 V 20 c 0,1.8 0.6,2.2 1.7,2.2 0.3,0 0.6,0 0.6,0 v 3.5 c -0.4,0.1 -0.9,0.1 -1.3,0.1 -2.2,0 -5,-0.6 -5,-5.2 z"
                    id="path30"
                    fill="#ffffff"/>
            <polygon
                    id="polygon32"
                    fill="#77b82a"
                    points="21,25.7 27.2,17.6 21,9.6 16.3,9.6 22.4,17.6 16.2,25.7 "/>
            <polygon
                    id="polygon34"
                    fill="#ffffff"
                    points="33.5,9.6 28.7,9.6 25.6,13.6 28,16.7 "/>
            <polygon
                    id="polygon36"
                    fill="#ffffff"
                    points="33.5,25.7 28,18.6 25.6,21.7 28.7,25.7 "/>
            <g
                    aria-label="Error Catalog"
                    transform="translate(141.39803,-118.68462)"
                    id="text873"
                    style="font-style:normal;font-weight:normal;font-size:29.3333px;line-height:1.25;font-family:sans-serif;white-space:pre;shape-inside:url(#rect875);fill:#ffffff;fill-opacity:1;stroke:none">
                <path
                        d="m -14.303389,145.02207 v -21.33331 h 11.8749864 v 1.20834 H -13.001307 v 8.84374 h 9.9374885 v 1.20833 h -9.9374885 v 8.86457 h 10.8229041 v 1.20833 z"
                        style="font-style:normal;font-variant:normal;font-weight:200;font-stretch:normal;font-size:29.3333px;font-family:Inter;-inkscape-font-specification:'Inter Ultra-Light';fill:#ffffff;fill-opacity:1"
                        id="path847"/>
                <path
                        d="m 2.5090766,145.02207 v -15.99998 h 1.2395819 v 2.5 h 0.1145832 q 0.5208327,-1.22917 1.7604146,-1.96875 1.239582,-0.75 2.8229135,-0.75 0.1666664,0 0.3333329,0 0.1666665,0 0.3124997,0.0104 v 1.28125 q -0.1249999,-0.0104 -0.302083,-0.0312 -0.1666665,-0.0312 -0.4166662,-0.0312 -1.3333318,0 -2.3749973,0.57291 -1.0312488,0.57292 -1.6249981,1.58334 -0.5937493,0.99999 -0.5937493,2.29166 v 10.54165 z"
                        style="font-style:normal;font-variant:normal;font-weight:200;font-stretch:normal;font-size:29.3333px;font-family:Inter;-inkscape-font-specification:'Inter Ultra-Light';fill:#ffffff;fill-opacity:1"
                        id="path849"/>
                <path
                        d="m 12.509035,145.02207 v -15.99998 h 1.239582 v 2.5 H 13.8632 q 0.520832,-1.22917 1.760414,-1.96875 1.239582,-0.75 2.822914,-0.75 0.166666,0 0.333333,0 0.166666,0 0.312499,0.0104 v 1.28125 q -0.124999,-0.0104 -0.302083,-0.0312 -0.166666,-0.0312 -0.416666,-0.0312 -1.333332,0 -2.374997,0.57291 -1.031249,0.57292 -1.624998,1.58334 -0.59375,0.99999 -0.59375,2.29166 v 10.54165 z"
                        style="font-style:normal;font-variant:normal;font-weight:200;font-stretch:normal;font-size:29.3333px;font-family:Inter;-inkscape-font-specification:'Inter Ultra-Light';fill:#ffffff;fill-opacity:1"
                        id="path851"/>
                <path
                        d="m 27.956889,145.35541 q -1.979164,0 -3.520829,-1.0625 -1.541665,-1.07292 -2.427081,-2.94792 -0.885415,-1.87499 -0.885415,-4.27082 0,-2.40625 0.885415,-4.27083 0.885416,-1.875 2.427081,-2.94792 1.541665,-1.07291 3.520829,-1.07291 1.979165,0 3.520829,1.07291 1.541665,1.07292 2.427081,2.94792 0.885416,1.875 0.885416,4.27083 0,2.39583 -0.885416,4.27082 -0.885416,1.875 -2.427081,2.94792 -1.541664,1.0625 -3.520829,1.0625 z m 0,-1.17709 q 1.677082,0 2.92708,-0.94791 1.260415,-0.94792 1.947915,-2.5625 0.697915,-1.61458 0.697915,-3.59374 0,-1.97917 -0.697915,-3.58333 -0.697916,-1.61458 -1.947915,-2.5625 -1.249998,-0.95833 -2.92708,-0.95833 -1.677081,0 -2.92708,0.95833 -1.249998,0.94792 -1.947914,2.5625 -0.697916,1.60416 -0.697916,3.58333 0,1.97916 0.687499,3.59374 0.697916,1.61458 1.947915,2.5625 1.260415,0.94791 2.937496,0.94791 z"
                        style="font-style:normal;font-variant:normal;font-weight:200;font-stretch:normal;font-size:29.3333px;font-family:Inter;-inkscape-font-specification:'Inter Ultra-Light';fill:#ffffff;fill-opacity:1"
                        id="path853"/>
                <path
                        d="m 39.17559,145.02207 v -15.99998 h 1.239582 v 2.5 h 0.114583 q 0.520833,-1.22917 1.760415,-1.96875 1.239582,-0.75 2.822913,-0.75 0.166667,0 0.333333,0 0.166667,0 0.3125,0.0104 v 1.28125 q -0.125,-0.0104 -0.302083,-0.0312 -0.166667,-0.0312 -0.416666,-0.0312 -1.333332,0 -2.374998,0.57291 -1.031248,0.57292 -1.624998,1.58334 -0.593749,0.99999 -0.593749,2.29166 v 10.54165 z"
                        style="font-style:normal;font-variant:normal;font-weight:200;font-stretch:normal;font-size:29.3333px;font-family:Inter;-inkscape-font-specification:'Inter Ultra-Light';fill:#ffffff;fill-opacity:1"
                        id="path855"/>
                <path
                        d="m 74.123381,130.35542 h -1.333332 q -0.208333,-1.08333 -0.781249,-2.09374 -0.572916,-1.02084 -1.479165,-1.83333 -0.895832,-0.82292 -2.083331,-1.30209 -1.187499,-0.47916 -2.624997,-0.47916 -2.104164,0 -3.874996,1.125 -1.760414,1.11458 -2.822913,3.28124 -1.052082,2.16667 -1.052082,5.30208 0,3.15625 1.052082,5.32291 1.062499,2.16666 2.822913,3.28125 1.770832,1.10416 3.874996,1.10416 1.437498,0 2.624997,-0.46875 1.187499,-0.47916 2.083331,-1.29166 0.906249,-0.82292 1.479165,-1.84375 0.572916,-1.02083 0.781249,-2.10417 h 1.333332 q -0.229167,1.29167 -0.885416,2.53125 -0.645833,1.23958 -1.708331,2.25 -1.052082,1 -2.489581,1.59375 -1.427081,0.58333 -3.218746,0.58333 -2.666664,0 -4.697911,-1.35417 -2.031248,-1.36458 -3.187497,-3.83332 -1.145832,-2.46875 -1.145832,-5.77083 0,-3.30208 1.145832,-5.77083 1.156249,-2.46874 3.187497,-3.82291 2.031247,-1.36458 4.697911,-1.36458 1.791665,0 3.218746,0.59375 1.437499,0.58333 2.489581,1.58333 1.062498,0.98958 1.708331,2.22916 0.656249,1.23959 0.885416,2.55208 z"
                        style="font-style:normal;font-variant:normal;font-weight:200;font-stretch:normal;font-size:29.3333px;font-family:Inter;-inkscape-font-specification:'Inter Ultra-Light';fill:#ffffff;fill-opacity:1"
                        id="path857"/>
                <path
                        d="m 82.914985,145.36582 q -1.385415,0 -2.541663,-0.55208 -1.145832,-0.55208 -1.843748,-1.61458 -0.687499,-1.0625 -0.687499,-2.58333 0,-1 0.354166,-1.76042 0.354166,-0.76041 1.093749,-1.31249 0.739582,-0.55209 1.895831,-0.90625 1.156248,-0.36459 2.760413,-0.5625 1.218749,-0.14584 2.177081,-0.28125 0.958332,-0.14584 1.499998,-0.44792 0.552083,-0.30208 0.552083,-0.91666 v -0.66667 q 0,-1.75 -1.104165,-2.78125 -1.104166,-1.03125 -3.041664,-1.03125 -1.718748,0 -2.89583,0.76042 -1.166665,0.75 -1.635414,1.9375 l -1.197916,-0.44792 q 0.458333,-1.14583 1.322916,-1.90625 0.874998,-0.76041 1.999997,-1.13541 1.135416,-0.375 2.374997,-0.375 1.072916,0 2.041665,0.30208 0.979165,0.30208 1.739581,0.91667 0.770833,0.61458 1.218749,1.57291 0.447916,0.94792 0.447916,2.27083 v 11.17707 h -1.270832 v -2.88541 h -0.09375 q -0.416666,0.89583 -1.145832,1.63542 -0.718749,0.72916 -1.739581,1.16666 -1.010416,0.42708 -2.281248,0.42708 z m 0.125,-1.17708 q 1.499999,0 2.656247,-0.72916 1.166666,-0.73959 1.822915,-2.02084 0.656249,-1.28124 0.656249,-2.90624 v -2.35417 q -0.239583,0.20834 -0.697916,0.375 -0.447916,0.15625 -1.020832,0.28125 -0.562499,0.11459 -1.187499,0.20834 -0.614582,0.0833 -1.197915,0.15625 -1.749998,0.20833 -2.854163,0.64583 -1.093749,0.42708 -1.604165,1.125 -0.5,0.69791 -0.5,1.6875 0,1.63541 1.124999,2.58333 1.124999,0.94791 2.80208,0.94791 z"
                        style="font-style:normal;font-variant:normal;font-weight:200;font-stretch:normal;font-size:29.3333px;font-family:Inter;-inkscape-font-specification:'Inter Ultra-Light';fill:#ffffff;fill-opacity:1"
                        id="path859"/>
                <path
                        d="m 100.42533,129.02209 v 1.13542 h -6.989574 v -1.13542 z m -4.624993,-3.83333 h 1.260415 v 16.05207 q 0,0.97916 0.375,1.60416 0.385416,0.61459 0.999999,0.91667 0.624999,0.29166 1.333332,0.29166 0.343747,0 0.593747,-0.0521 0.26042,-0.0521 0.48958,-0.13542 l 0.3125,1.15625 q -0.29166,0.10417 -0.64583,0.17709 -0.35416,0.0833 -0.833331,0.0833 -0.999999,0 -1.895831,-0.44792 -0.885416,-0.44791 -1.437498,-1.30208 -0.552083,-0.85416 -0.552083,-2.0625 z"
                        style="font-style:normal;font-variant:normal;font-weight:200;font-stretch:normal;font-size:29.3333px;font-family:Inter;-inkscape-font-specification:'Inter Ultra-Light';fill:#ffffff;fill-opacity:1"
                        id="path861"/>
                <path
                        d="m 109.37319,145.36582 q -1.38541,0 -2.54166,-0.55208 -1.14583,-0.55208 -1.84375,-1.61458 -0.6875,-1.0625 -0.6875,-2.58333 0,-1 0.35417,-1.76042 0.35416,-0.76041 1.09375,-1.31249 0.73958,-0.55209 1.89583,-0.90625 1.15625,-0.36459 2.76041,-0.5625 1.21875,-0.14584 2.17708,-0.28125 0.95833,-0.14584 1.5,-0.44792 0.55208,-0.30208 0.55208,-0.91666 v -0.66667 q 0,-1.75 -1.10416,-2.78125 -1.10417,-1.03125 -3.04167,-1.03125 -1.71874,0 -2.89583,0.76042 -1.16666,0.75 -1.63541,1.9375 l -1.19792,-0.44792 q 0.45834,-1.14583 1.32292,-1.90625 0.875,-0.76041 2,-1.13541 1.13541,-0.375 2.37499,-0.375 1.07292,0 2.04167,0.30208 0.97916,0.30208 1.73958,0.91667 0.77083,0.61458 1.21875,1.57291 0.44791,0.94792 0.44791,2.27083 v 11.17707 h -1.27083 v -2.88541 h -0.0937 q -0.41666,0.89583 -1.14583,1.63542 -0.71875,0.72916 -1.73958,1.16666 -1.01042,0.42708 -2.28125,0.42708 z m 0.125,-1.17708 q 1.5,0 2.65625,-0.72916 1.16666,-0.73959 1.82291,-2.02084 0.65625,-1.28124 0.65625,-2.90624 v -2.35417 q -0.23958,0.20834 -0.69791,0.375 -0.44792,0.15625 -1.02084,0.28125 -0.5625,0.11459 -1.18749,0.20834 -0.61459,0.0833 -1.19792,0.15625 -1.75,0.20833 -2.85416,0.64583 -1.09375,0.42708 -1.60417,1.125 -0.5,0.69791 -0.5,1.6875 0,1.63541 1.125,2.58333 1.125,0.94791 2.80208,0.94791 z"
                        style="font-style:normal;font-variant:normal;font-weight:200;font-stretch:normal;font-size:29.3333px;font-family:Inter;-inkscape-font-specification:'Inter Ultra-Light';fill:#ffffff;fill-opacity:1"
                        id="path863"/>
                <path
                        d="m 122.49812,123.68876 v 21.33331 h -1.27083 v -21.33331 z"
                        style="font-style:normal;font-variant:normal;font-weight:200;font-stretch:normal;font-size:29.3333px;font-family:Inter;-inkscape-font-specification:'Inter Ultra-Light';fill:#ffffff;fill-opacity:1"
                        id="path865"/>
                <path
                        d="m 133.71685,145.35541 q -1.97916,0 -3.52083,-1.0625 -1.54166,-1.07292 -2.42708,-2.94792 -0.88541,-1.87499 -0.88541,-4.27082 0,-2.40625 0.88541,-4.27083 0.88542,-1.875 2.42708,-2.94792 1.54167,-1.07291 3.52083,-1.07291 1.97917,0 3.52083,1.07291 1.54167,1.07292 2.42708,2.94792 0.88542,1.875 0.88542,4.27083 0,2.39583 -0.88542,4.27082 -0.88541,1.875 -2.42708,2.94792 -1.54166,1.0625 -3.52083,1.0625 z m 0,-1.17709 q 1.67708,0 2.92708,-0.94791 1.26042,-0.94792 1.94792,-2.5625 0.69791,-1.61458 0.69791,-3.59374 0,-1.97917 -0.69791,-3.58333 -0.69792,-1.61458 -1.94792,-2.5625 -1.25,-0.95833 -2.92708,-0.95833 -1.67708,0 -2.92708,0.95833 -1.25,0.94792 -1.94791,2.5625 -0.69792,1.60416 -0.69792,3.58333 0,1.97916 0.6875,3.59374 0.69792,1.61458 1.94792,2.5625 1.26041,0.94791 2.93749,0.94791 z"
                        style="font-style:normal;font-variant:normal;font-weight:200;font-stretch:normal;font-size:29.3333px;font-family:Inter;-inkscape-font-specification:'Inter Ultra-Light';fill:#ffffff;fill-opacity:1"
                        id="path867"/>
                <path
                        d="m 150.70638,151.3554 q -1.48958,0 -2.67708,-0.39583 -1.1875,-0.38542 -2.02083,-1.10417 -0.82292,-0.71875 -1.26042,-1.70833 l 1.0625,-0.625 q 0.35417,0.77083 1.01042,1.375 0.65625,0.60417 1.625,0.94791 0.97916,0.34375 2.26041,0.34375 2.3125,0 3.65625,-1.19791 1.35416,-1.1875 1.35416,-3.64583 v -3.97916 h -0.125 q -0.36458,1.04166 -1.08333,1.85416 -0.70833,0.80208 -1.73958,1.26042 -1.03125,0.45833 -2.34375,0.45833 -1.89583,0 -3.33333,-0.97917 -1.4375,-0.97916 -2.23958,-2.74999 -0.80208,-1.78125 -0.80208,-4.1875 0,-2.40624 0.78125,-4.26041 0.79166,-1.86458 2.22916,-2.91666 1.4375,-1.0625 3.375,-1.0625 1.38541,0 2.39583,0.53125 1.02083,0.52083 1.70833,1.38541 0.6875,0.86459 1.0625,1.89583 h 0.14583 v -3.57291 h 1.22917 v 16.37498 q 0,2 -0.79167,3.32292 -0.78125,1.32291 -2.19791,1.97916 -1.40625,0.65625 -3.28125,0.65625 z m -0.16667,-7.59374 q 1.60417,0 2.76042,-0.8125 1.16666,-0.82292 1.79166,-2.33333 0.63542,-1.52083 0.63542,-3.60416 0,-2.02083 -0.61458,-3.61458 -0.61459,-1.59375 -1.78125,-2.51042 -1.16667,-0.91666 -2.79167,-0.91666 -1.65624,0 -2.82291,0.9375 -1.16666,0.92708 -1.79166,2.52083 -0.61459,1.59375 -0.61459,3.58333 0,1.99999 0.625,3.52083 0.625,1.51041 1.79167,2.37499 1.16666,0.85417 2.81249,0.85417 z"
                        style="font-style:normal;font-variant:normal;font-weight:200;font-stretch:normal;font-size:29.3333px;font-family:Inter;-inkscape-font-specification:'Inter Ultra-Light';fill:#ffffff;fill-opacity:1"
                        id="path869"/>
            </g>
        </g>
    </g>
</svg>
